<svg xmlns="http://www.w3.org/2000/svg" viewBox="0 0 980 260" role="img" aria-label="SM DNA logo">
  <defs>
    <linearGradient id="iconBg" x1="0" y1="0" x2="1" y2="1">
      <stop offset="0%" stop-color="#111827"/>
      <stop offset="100%" stop-color="#0f766e"/>
    </linearGradient>
    <linearGradient id="titleGrad" x1="0" y1="0" x2="1" y2="0">
      <stop offset="0%" stop-color="#0f172a"/>
      <stop offset="100%" stop-color="#1e293b"/>
    </linearGradient>
  </defs>

  <rect x="28" y="28" width="204" height="204" rx="44" fill="url(#iconBg)"/>
  <path d="M160 52v156" stroke="rgba(255,255,255,0.34)" stroke-width="4"/>

  <text x="52" y="152" fill="#f8fafc" font-size="88" font-family="Avenir Next, Segoe UI, sans-serif" font-weight="700" letter-spacing="1">SM</text>

  <g fill="none" stroke-linecap="round" transform="translate(166,58)">
    <path d="M12 0c16 12 16 24 0 36s-16 24 0 36 16 24 0 36" stroke="#fbbf24" stroke-width="7"/>
    <path d="M42 0c-16 12-16 24 0 36s16 24 0 36-16 24 0 36" stroke="#fbbf24" stroke-width="7"/>
    <path d="M16 13h22" stroke="#fde68a" stroke-width="6"/>
    <path d="M14 30h26" stroke="#fde68a" stroke-width="6"/>
    <path d="M14 48h26" stroke="#fde68a" stroke-width="6"/>
    <path d="M14 66h26" stroke="#fde68a" stroke-width="6"/>
    <path d="M14 84h26" stroke="#fde68a" stroke-width="6"/>
    <path d="M16 101h22" stroke="#fde68a" stroke-width="6"/>
  </g>

  <text x="276" y="122" fill="url(#titleGrad)" font-size="68" font-family="Avenir Next, Segoe UI, sans-serif" font-weight="700">Sai Subhash Mahamkali</text>
  <text x="280" y="174" fill="#334155" font-size="28" font-family="Avenir Next, Segoe UI, sans-serif" font-weight="600">Genomics  •  Quantitative Genetics  •  Computational Biology</text>
</svg>
