<svg xmlns="http://www.w3.org/2000/svg" viewBox="0 0 1320 260" role="img" aria-label="SM DNA logo">
  <defs>
    <linearGradient id="iconBg" x1="0" y1="0" x2="1" y2="1">
      <stop offset="0%" stop-color="#0b1220"/>
      <stop offset="100%" stop-color="#0f766e"/>
    </linearGradient>
    <linearGradient id="titleGrad" x1="0" y1="0" x2="1" y2="0">
      <stop offset="0%" stop-color="#0f172a"/>
      <stop offset="100%" stop-color="#1e293b"/>
    </linearGradient>
  </defs>

  <rect x="28" y="28" width="204" height="204" rx="44" fill="url(#iconBg)"/>
  <path d="M150 52v156" stroke="rgba(255,255,255,0.32)" stroke-width="3.5"/>

  <text x="45" y="153" fill="#f8fafc" font-size="76" font-family="Avenir Next, Segoe UI, sans-serif" font-weight="700" letter-spacing="0.5">SM</text>

  <g fill="none" stroke-linecap="round" transform="translate(158,58)">
    <path d="M8 2c11 10 11 20 0 30s-11 20 0 30 11 20 0 30" stroke="#fbbf24" stroke-width="6"/>
    <path d="M34 2c-11 10-11 20 0 30s11 20 0 30-11 20 0 30" stroke="#fbbf24" stroke-width="6"/>
    <path d="M12 12h18" stroke="#fef3c7" stroke-width="4.5"/>
    <path d="M10 27h22" stroke="#fef3c7" stroke-width="4.5"/>
    <path d="M10 42h22" stroke="#fef3c7" stroke-width="4.5"/>
    <path d="M10 57h22" stroke="#fef3c7" stroke-width="4.5"/>
    <path d="M10 72h22" stroke="#fef3c7" stroke-width="4.5"/>
    <path d="M12 87h18" stroke="#fef3c7" stroke-width="4.5"/>
  </g>

  <text x="270" y="118" fill="url(#titleGrad)" font-size="64" font-family="Avenir Next, Segoe UI, sans-serif" font-weight="700">Sai Subhash Mahamkali</text>
  <text x="272" y="170" fill="#334155" font-size="31" font-family="Avenir Next, Segoe UI, sans-serif" font-weight="600">Genomics  •  Quantitative Genetics  •  Computational Biology</text>
</svg>
